<?xml version="1.0" encoding="UTF-8"?>
<svg width="40px" height="40px" viewBox="0 0 40 40" version="1.1" xmlns="http://www.w3.org/2000/svg" xmlns:xlink="http://www.w3.org/1999/xlink">
    <title>Artboard Copy 50</title>
    <g id="Artboard-Copy-50" stroke="none" stroke-width="1" fill="none" fill-rule="evenodd">
        <path d="M38,0 L38,22 C38,31.8306685 30.1192167,39.8206815 20.3306652,39.9970237 L20,40 C10.0588745,40 2,31.9411255 2,22 L2,0 L38,0 Z M33.3599335,7.60031768 C32.180977,6.43617521 30.2815201,6.44818432 29.1173776,7.62714077 L29.1173776,7.62714077 L16.74,20.161 L11.8242008,15.1831995 L11.7973777,15.1563764 C10.6184215,13.9922337 8.71896454,14.0042424 7.55482179,15.1831985 L7.55482179,15.1831985 L7.29417421,15.4471628 C6.14042659,16.6155916 6.14042615,18.4944663 7.29417322,19.6628956 L7.29417322,19.6628956 L14.2699745,26.7274689 C14.2788589,26.7364664 14.2878001,26.7454076 14.2967976,26.754292 C14.9680939,27.4171536 15.8729875,27.6986891 16.7423723,27.6011424 C17.6234893,27.6990831 18.5392262,27.4072709 19.2104848,26.7274705 L19.2104848,26.7274705 L33.6474041,12.1068379 C34.8011515,10.9384089 34.8011515,9.05953418 33.6474041,7.89110514 L33.6474041,7.89110514 L33.3867566,7.62714077 C33.3778722,7.6181433 33.368931,7.60920209 33.3599335,7.60031768 Z" id="Combined-Shape" fill="#FF0000"></path>
    </g>
</svg>