<?xml version="1.0" encoding="UTF-8"?>
<svg width="40px" height="40px" viewBox="0 0 40 40" version="1.1" xmlns="http://www.w3.org/2000/svg" xmlns:xlink="http://www.w3.org/1999/xlink">
    <title>Artboard Copy 12</title>
    <g id="Artboard-Copy-12" stroke="none" stroke-width="1" fill="none" fill-rule="evenodd">
        <path d="M38,0 L38,22 C38,31.8306685 30.1192167,39.8206815 20.3306652,39.9970237 L20,40 C10.0588745,40 2,31.9411255 2,22 L2,0 L38,0 Z M33.4136675,7.59822397 C32.235815,6.43296461 30.3363475,6.4431734 29.1710881,7.62102595 L29.1710881,7.62102595 L16.764,20.161 L11.832998,15.1770847 C11.8254383,15.1694433 11.8178375,15.1618425 11.8101961,15.1542827 C10.6323438,13.9890231 8.73287627,13.9992314 7.56761663,15.1770837 L7.56761663,15.1770837 L7.30242571,15.4451405 C6.14601303,16.6140502 6.14601259,18.4960077 7.30242472,19.6649179 L7.30242472,19.6649179 L14.2955116,26.7335837 C14.3030713,26.7412252 14.3106721,26.7488259 14.3183135,26.7563857 C14.9897537,27.4206474 15.8956916,27.7029262 16.7663622,27.6051415 C17.6467708,27.7032519 18.5619046,27.4122343 19.2332977,26.7335853 L19.2332977,26.7335853 L33.7016604,12.1088603 C34.8580728,10.9399503 34.8580728,9.0579928 33.7016604,7.88908282 L33.7016604,7.88908282 L33.4364695,7.62102595 C33.4289097,7.61338449 33.421309,7.60578373 33.4136675,7.59822397 Z" id="Combined-Shape" fill="#0074A6"></path>
    </g>
</svg>